<svg xmlns="http://www.w3.org/2000/svg" xmlns:xlink="http://www.w3.org/1999/xlink" version="1.1" id="layer" x="0px" y="0px" style="enable-background:new 0 0 652 652;" xml:space="preserve" viewBox="22 269.4 599.9 103.25">
<style type="text/css">
	.st0{fill:#00A88F;}
</style>
<path class="st0" d="M91.5,280.3c12.4-12.4,32.7-12.4,45.1,0c12.4,12.4,12.4,32.6,0,45l0,0L93,368.9c-5,5-13.1,5-18,0l0,0l52.6-52.5  c3.6-3.6,5.6-8.4,5.6-13.5s-2-9.9-5.6-13.5c-7.5-7.4-19.6-7.4-27.1,0l0,0l-34.6,34.5l-16.5-16.5c-2.5-2.5-2.5-6.5,0-9  c2.5-2.5,6.5-2.5,9,0l0,0l7.5,7.5L91.5,280.3z M591.3,298.2c19.1,0,30.6,12.2,30.6,32.1c0,2.4-0.3,4.9-0.3,5.2l0,0h-44.4  c0.3,8.2,7.3,14.1,15.6,14.1c7.8,0,12.1-3.9,14.1-9.4l0,0l14.1,4.2c-3.2,10.7-13,19.7-28.3,19.7c-17.1,0-32.1-12.3-32.1-33.2  C560.8,311.1,575.4,298.2,591.3,298.2z M293.1,298.2c19.7,0,27,11.1,27,23.6l0,0v30.5c0,3.3,0.4,7.7,0.8,9.8l0,0h-15.4  c-0.3-1.6-0.6-5-0.6-7.4c-3.2,5-9.2,9.2-18.3,9.2c-13.3,0-21.4-9-21.4-18.7c0-11.1,8.2-17.3,18.5-18.9l0,0l15.3-2.2  c3.5-0.5,4.7-2.2,4.7-4.4c0-4.4-3.4-8.1-10.4-8.1c-7.3,0-11.4,4.7-11.9,10.1l0,0l-14.9-3.1C267.5,308.9,276.4,298.2,293.1,298.2z   M447.2,270.9v70.3c0,5.4,3,6.9,7.2,6.9c0.9,0,1.8,0,2.9-0.1l0,0v14.3c-2.3,0.5-4.3,0.8-6.9,0.8c-12.1,0-19.7-7.1-19.7-19.1l0,0  v-73.1H447.2z M200.5,281.6v18.5H213V315h-12.5v26c0,5.4,2.5,7.2,7.3,7.2c2,0,4.3-0.3,5.2-0.5l0,0v13.9c-1.5,0.6-4.6,1.5-9.5,1.5  c-12.1,0-19.7-7.2-19.7-19.2l0,0V315h-11.3v-14.9h3.2c6.6,0,9.6-4.3,9.6-9.8l0,0v-8.7H200.5z M396.6,298.4c15.4,0,22.4,11,22.4,24.6  l0,0v39.1h-16.8V326c0-6.9-3.4-12.4-11.5-12.4c-7.3,0-11.6,5.6-11.6,12.8l0,0v35.6h-16.8v-62h16.3v7.7  C382.4,301.3,389.8,298.4,396.6,298.4z M530.2,298.4c15.4,0,22.4,11,22.4,24.6l0,0v39.1h-16.8V326c0-6.9-3.4-12.4-11.5-12.4  c-7.3,0-11.6,5.6-11.6,12.8l0,0v35.6h-16.8v-62h16.3v7.7C516,301.3,523.4,298.4,530.2,298.4z M257.1,299.6c1.4,0,2.6,0.2,3.9,0.3  l0,0v16.8c-2-0.4-3.5-0.5-5.1-0.5c-8.6,0-16,4.2-16,17.5l0,0v28.3h-16.8v-62h16.3v9.2C243.3,301.1,251.8,299.6,257.1,299.6z   M349.5,300.1v62h-16.8v-62H349.5z M483.1,300.1v62h-16.8v-62H483.1z M31.3,280.3c11.9-11.9,31-12.4,43.6-1.4l0,0l-9.1,9  c-7.5-6-18.5-5.5-25.5,1.4c-7.5,7.4-7.5,19.6,0,27l0,0l25.6,25.5l43.6-43.5c2.5-2.5,6.5-2.5,9,0c2.5,2.5,2.5,6.5,0,9l0,0l-52.6,52.5  l-34.6-34.5c-6-6-9.3-14-9.3-22.5S25.3,286.4,31.3,280.3z M303.7,334.2l-14.1,2.1c-4.3,0.6-7.7,3-7.7,7.8c0,3.7,2.6,7.2,8.1,7.2  c7.1,0,13.7-3.4,13.7-14.4l0,0V334.2z M591.4,311.7c-8.7,0-13.5,6.6-13.9,12.3l0,0h27.7C605.1,317.8,601,311.7,591.4,311.7z   M341,269.4c5.8,0,10.3,4.6,10.3,10.4c0,5.5-4.5,10.2-10.3,10.2c-5.7,0-10.3-4.7-10.3-10.2C330.7,274,335.4,269.3,341,269.4z   M474.7,269.4c5.8,0,10.3,4.6,10.3,10.4c0,5.5-4.5,10.2-10.3,10.2c-5.7,0-10.3-4.7-10.3-10.2C464.4,274,469,269.3,474.7,269.4z"/>
</svg>